<?xml version="1.0" standalone="no"?>
<!DOCTYPE svg PUBLIC "-//W3C//DTD SVG 20010904//EN"
 "http://www.w3.org/TR/2001/REC-SVG-20010904/DTD/svg10.dtd">
<svg version="1.0" xmlns="http://www.w3.org/2000/svg"
 width="1085.000000pt" height="230.000000pt" viewBox="0 0 1085.000000 230.000000"
 preserveAspectRatio="xMidYMid meet">
<metadata>
Created by potrace 1.15, written by Peter Selinger 2001-2017
</metadata>
<g transform="translate(0.000000,230.000000) scale(0.100000,-0.100000)"
fill="#000000" stroke="none">
<path d="M8650 2254 c-8 -1 -41 -6 -74 -9 -46 -5 -59 -11 -63 -26 -7 -25 -23
-25 -23 0 0 17 -8 19 -84 20 -121 1 -130 -8 -167 -164 -5 -22 -14 -62 -19 -90
-5 -27 -14 -70 -19 -95 -7 -36 -6 -47 7 -58 15 -12 15 -12 -5 -7 -18 5 -23 2
-23 -11 0 -18 -5 -34 -40 -140 -11 -33 -20 -72 -20 -86 0 -15 -5 -28 -10 -30
-6 -2 -17 -37 -25 -78 -8 -41 -19 -97 -25 -123 -14 -67 -13 -180 3 -208 66
-127 147 -158 203 -78 25 36 26 45 21 108 -3 38 -2 72 2 77 4 5 23 47 41 94
46 119 89 209 118 248 19 25 22 36 14 44 -17 17 -15 31 4 24 16 -6 54 19 54
35 0 4 11 19 25 33 14 14 25 32 25 40 0 8 8 17 18 21 18 6 102 107 114 137 4
10 12 18 18 18 16 0 80 72 96 109 8 18 14 60 14 92 0 77 -7 82 -145 103 -11 2
-27 2 -35 0z"/>
<path d="M6985 2131 c-157 -31 -301 -127 -389 -260 -106 -159 -135 -378 -74
-556 62 -182 210 -330 393 -393 119 -41 277 -40 400 3 246 86 414 325 414 590
1 277 -160 503 -429 600 -51 18 -252 28 -315 16z m179 -461 c58 -22 86 -129
49 -190 -41 -70 -144 -80 -195 -19 -52 61 -31 182 36 209 29 12 80 12 110 0z"/>
<path d="M1975 2012 c-179 -53 -324 -185 -380 -347 -75 -216 -26 -434 135
-595 74 -75 128 -108 235 -147 66 -24 312 -24 395 0 111 31 165 51 178 62 11
10 14 59 13 216 l0 204 -156 3 -155 3 0 -31 0 -30 108 0 c71 0 112 -4 120 -12
13 -13 17 -275 4 -294 -20 -31 -208 -74 -325 -74 -140 0 -239 36 -332 121 -67
62 -103 113 -136 194 -21 52 -24 76 -24 180 0 104 3 128 24 180 51 126 127
207 251 268 l85 42 140 -1 c125 0 148 -3 216 -27 42 -14 93 -35 113 -47 20
-11 39 -20 41 -20 11 0 4 78 -8 88 -7 6 -55 26 -107 43 -86 30 -108 33 -235
36 -111 2 -152 -1 -200 -15z"/>
<path d="M4073 2001 c-104 -36 -170 -78 -236 -151 -94 -105 -147 -243 -147
-389 0 -251 152 -455 405 -542 60 -21 304 -19 372 3 196 63 326 186 384 365
36 110 29 342 -12 388 -5 5 -9 15 -9 22 0 23 -68 122 -118 172 -59 59 -159
116 -249 142 -50 14 -99 19 -188 19 -106 0 -130 -4 -202 -29z m327 -122 c161
-37 288 -176 320 -351 12 -69 7 -117 -24 -208 -36 -107 -107 -187 -205 -233
-282 -133 -595 21 -639 313 -20 132 24 272 115 364 56 58 112 91 183 110 65
17 186 20 250 5z"/>
<path d="M2780 1466 l0 -556 55 0 55 0 2 253 3 252 74 3 c81 3 132 -11 189
-55 41 -31 144 -169 248 -330 l78 -123 63 0 c35 0 63 4 63 8 0 4 -19 35 -43
67 -23 33 -69 103 -102 155 -81 130 -160 239 -204 278 -24 22 -32 35 -23 39
43 17 112 75 139 116 51 76 56 202 12 288 -26 52 -99 113 -161 134 -43 15 -92
19 -250 23 l-198 4 0 -556z m364 443 c53 -15 99 -46 127 -87 19 -28 23 -47 23
-102 0 -59 -4 -73 -28 -105 -55 -71 -138 -99 -286 -93 l-85 3 -3 185 c-1 101
0 190 2 197 7 16 193 18 250 2z"/>
<path d="M5090 1465 l0 -555 135 0 135 0 0 335 c0 184 4 335 9 335 4 0 72 -77
151 -171 78 -94 149 -173 158 -176 18 -7 43 19 200 210 62 75 117 137 122 137
6 0 10 -130 10 -335 l0 -335 135 0 135 0 0 555 0 555 -119 0 -119 0 -43 -52
c-24 -29 -59 -71 -79 -93 -19 -23 -79 -93 -134 -158 -54 -64 -103 -114 -108
-111 -5 3 -46 50 -90 103 -44 53 -121 144 -170 204 l-89 107 -120 0 -119 0 0
-555z"/>
<path d="M8038 929 c-15 -6 -29 -20 -32 -35 -4 -13 -12 -24 -20 -24 -13 0 -36
-41 -36 -65 0 -8 6 -15 14 -15 21 0 30 -19 16 -35 -14 -16 10 -69 35 -79 55
-21 127 10 166 73 28 44 40 111 19 111 -5 0 -10 13 -10 30 0 19 -7 33 -19 40
-24 12 -97 12 -133 -1z"/>
<path d="M7365 596 c-89 -41 -135 -116 -135 -220 1 -79 24 -130 84 -183 117
-103 295 -70 370 67 24 44 29 65 28 120 0 82 -23 132 -84 184 -71 62 -174 74
-263 32z"/>
<path d="M6940 601 c-83 -26 -142 -84 -166 -166 -14 -48 -14 -63 -2 -108 27
-105 113 -176 216 -177 28 0 52 4 52 8 0 5 -11 19 -24 31 -13 13 -35 46 -47
74 -44 101 -23 228 51 307 15 16 25 32 22 35 -8 7 -72 5 -102 -4z"/>
<path d="M7118 582 c-126 -72 -160 -231 -75 -345 42 -55 123 -97 189 -97 26 0
48 3 48 6 0 3 -17 25 -38 49 -46 53 -62 100 -62 187 0 73 13 112 59 175 17 24
31 45 31 48 0 3 -24 5 -52 5 -39 0 -65 -7 -100 -28z"/>
<path d="M6681 587 c-96 -31 -167 -159 -140 -256 25 -92 89 -154 175 -170 41
-8 84 -5 84 5 0 2 -15 25 -33 51 -37 52 -57 111 -57 164 0 47 34 137 65 169
14 14 25 31 25 38 0 15 -71 14 -119 -1z"/>
<path d="M6455 583 c-59 -15 -120 -80 -141 -151 -28 -93 26 -211 113 -247 37
-16 121 -27 134 -19 5 3 -6 26 -25 52 -52 75 -70 167 -45 229 30 73 40 90 58
107 11 10 18 23 15 27 -5 9 -75 10 -109 2z"/>
<path d="M5990 568 c-45 -13 -96 -52 -121 -92 -27 -45 -26 -149 2 -196 38 -62
78 -88 149 -97 27 -3 56 -3 66 1 16 6 15 8 -3 29 -74 80 -82 209 -21 302 25
38 29 49 17 56 -17 11 -44 10 -89 -3z"/>
<path d="M6198 566 c-35 -15 -86 -63 -104 -98 -21 -41 -18 -141 6 -188 33 -64
111 -110 186 -110 46 0 50 14 16 57 -69 90 -67 217 3 309 14 18 25 35 25 38 0
11 -105 4 -132 -8z"/>
<path d="M5765 563 c-60 -14 -102 -46 -132 -100 -17 -31 -16 -138 1 -171 15
-29 57 -69 93 -89 21 -12 133 -19 133 -9 0 3 -15 27 -32 53 -29 43 -33 55 -33
124 0 78 11 113 49 156 11 13 18 25 15 27 -8 8 -74 14 -94 9z"/>
<path d="M5483 539 c-108 -53 -131 -213 -41 -296 43 -40 135 -64 167 -44 12 8
10 17 -14 53 -26 38 -29 52 -30 119 0 74 11 112 43 151 8 9 11 22 7 27 -10 18
-87 12 -132 -10z"/>
<path d="M5264 539 c-18 -5 -46 -25 -63 -44 -104 -119 -31 -288 125 -288 30 0
57 3 60 5 3 3 -6 22 -20 43 -47 68 -47 177 -2 246 21 31 23 38 10 43 -22 8
-73 6 -110 -5z"/>
<path d="M4781 517 c-48 -25 -90 -89 -91 -138 -1 -85 76 -159 163 -159 53 0
60 11 37 58 -28 57 -27 147 2 201 12 22 19 43 16 47 -18 18 -86 13 -127 -9z"/>
<path d="M4999 517 c-42 -28 -79 -91 -79 -135 0 -54 37 -120 85 -147 42 -25
128 -35 139 -16 3 5 -5 29 -19 53 -35 61 -35 150 0 212 14 25 25 47 25 50 0 3
-26 6 -59 6 -44 0 -66 -6 -92 -23z"/>
<path d="M4566 520 c-55 -17 -106 -87 -106 -147 0 -38 38 -102 73 -123 34 -21
131 -28 142 -11 3 6 -4 25 -15 43 -28 46 -28 144 0 194 12 20 20 38 18 39 -10
9 -88 12 -112 5z"/>
<path d="M4305 502 c-41 -26 -52 -41 -66 -93 -10 -39 -10 -50 8 -90 27 -61 93
-98 150 -83 42 10 43 15 18 84 -19 51 -14 106 13 152 15 25 15 30 2 38 -25 16
-93 11 -125 -8z"/>
<path d="M4073 494 c-45 -23 -67 -60 -67 -115 0 -79 51 -131 127 -133 23 0 50
2 59 6 15 6 15 10 -3 47 -24 51 -24 101 1 153 11 23 18 43 16 45 -2 2 -25 6
-52 9 -34 3 -59 0 -81 -12z"/>
<path d="M3605 482 c-46 -29 -56 -46 -57 -100 0 -56 19 -93 58 -110 34 -16 86
-15 109 1 16 12 16 18 7 47 -15 42 -15 82 0 116 11 23 10 28 -11 45 -29 24
-68 24 -106 1z"/>
<path d="M3828 483 c-15 -9 -32 -27 -39 -40 -15 -28 -15 -103 0 -131 28 -52
131 -81 165 -46 14 14 14 18 0 46 -11 21 -14 44 -10 77 15 111 17 106 -39 108
-33 2 -59 -3 -77 -14z"/>
<path d="M3372 475 c-40 -18 -67 -73 -57 -121 9 -48 56 -84 110 -84 56 0 78
20 64 58 -6 15 -8 51 -4 83 6 53 5 56 -20 67 -33 15 -52 15 -93 -3z"/>
<path d="M3131 466 c-31 -17 -50 -53 -51 -94 0 -50 48 -92 104 -92 63 1 72 13
71 100 0 69 -2 75 -25 87 -32 16 -69 16 -99 -1z"/>
<path d="M2881 439 c-39 -39 -41 -83 -6 -121 35 -38 69 -45 113 -22 34 19 35
21 36 78 1 50 -2 61 -23 77 -37 29 -84 24 -120 -12z"/>
<path d="M2675 453 c-27 -7 -55 -43 -55 -71 0 -13 9 -37 21 -53 18 -25 27 -29
69 -29 56 0 80 23 80 76 0 57 -54 93 -115 77z"/>
<path d="M2411 421 c-27 -38 -26 -60 3 -93 27 -32 64 -36 101 -12 20 13 25 25
25 59 0 52 -23 75 -73 75 -28 0 -40 -6 -56 -29z"/>
</g>
</svg>
